<?xml version="1.0" encoding="UTF-8"?>
<svg xmlns="http://www.w3.org/2000/svg" viewBox="0 0 2000 2000">
  <defs>
    <style>
      .cls-1 {
        isolation: isolate;
      }

      .cls-2 {
        fill: none;
        stroke: #fff;
        stroke-miterlimit: 10;
        stroke-width: .5px;
      }

      .cls-3 {
        mix-blend-mode: overlay;
        opacity: .15;
      }
    </style>
  </defs>
  <g class="cls-1">
    <g id="Layer_2" data-name="Layer 2">
      <g id="Layer_1-2" data-name="Layer 1">
        <g class="cls-3">
          <line class="cls-2" y1="100" x2="2000" y2="100"></line>
          <line class="cls-2" y1="200" x2="2000" y2="200"></line>
          <line class="cls-2" y1="300" x2="2000" y2="300"></line>
          <line class="cls-2" y1="400" x2="2000" y2="400"></line>
          <line class="cls-2" y1="500" x2="2000" y2="500"></line>
          <line class="cls-2" y1="600" x2="2000" y2="600"></line>
          <line class="cls-2" y1="700" x2="2000" y2="700"></line>
          <line class="cls-2" y1="800" x2="2000" y2="800"></line>
          <line class="cls-2" y1="900" x2="2000" y2="900"></line>
          <line class="cls-2" y1="1000" x2="2000" y2="1000"></line>
          <line class="cls-2" y1="1100" x2="2000" y2="1100"></line>
          <line class="cls-2" y1="1200" x2="2000" y2="1200"></line>
          <line class="cls-2" y1="1300" x2="2000" y2="1300"></line>
          <line class="cls-2" y1="1400" x2="2000" y2="1400"></line>
          <line class="cls-2" y1="1500" x2="2000" y2="1500"></line>
          <line class="cls-2" y1="1600" x2="2000" y2="1600"></line>
          <line class="cls-2" y1="1700" x2="2000" y2="1700"></line>
          <line class="cls-2" y1="1800" x2="2000" y2="1800"></line>
          <line class="cls-2" y1="1900" x2="2000" y2="1900"></line>
          <line class="cls-2" x1="1900" y1="2000" x2="1900"></line>
          <line class="cls-2" x1="1800" y1="2000" x2="1800"></line>
          <line class="cls-2" x1="1700" y1="2000" x2="1700"></line>
          <line class="cls-2" x1="1600" y1="2000" x2="1600"></line>
          <line class="cls-2" x1="1500" y1="2000" x2="1500"></line>
          <line class="cls-2" x1="1400" y1="2000" x2="1400"></line>
          <line class="cls-2" x1="1300" y1="2000" x2="1300"></line>
          <line class="cls-2" x1="1200" y1="2000" x2="1200"></line>
          <line class="cls-2" x1="1100" y1="2000" x2="1100"></line>
          <line class="cls-2" x1="1000" y1="2000" x2="1000"></line>
          <line class="cls-2" x1="900" y1="2000" x2="900"></line>
          <line class="cls-2" x1="800" y1="2000" x2="800"></line>
          <line class="cls-2" x1="700" y1="2000" x2="700"></line>
          <line class="cls-2" x1="600" y1="2000" x2="600"></line>
          <line class="cls-2" x1="500" y1="2000" x2="500"></line>
          <line class="cls-2" x1="400" y1="2000" x2="400"></line>
          <line class="cls-2" x1="300" y1="2000" x2="300"></line>
          <line class="cls-2" x1="200" y1="2000" x2="200"></line>
          <line class="cls-2" x1="100" y1="2000" x2="100"></line>
        </g>
      </g>
    </g>
  </g>
</svg>
